<?xml version="1.0" encoding="utf-8"?>
<!DOCTYPE svg PUBLIC "-//W3C//DTD SVG 1.1//EN" "http://www.w3.org/Graphics/SVG/1.1/DTD/svg11.dtd">
<svg version="1.1" id="Ebene_1" xmlns="http://www.w3.org/2000/svg" xmlns:xlink="http://www.w3.org/1999/xlink" x="0px" y="0px"
	 width="342px" height="91px" viewBox="0 0 342 91" enable-background="new 0 0 342 91" xml:space="preserve">
<g>
	<g>
		<path fill="#FFFFFF" d="M80.026,90.409c-0.394,0-0.59-0.197-0.59-0.592V69.484c0-1.38-0.088-2.521-0.265-3.428
			c-0.177-0.907-0.521-1.616-1.032-2.129c-0.511-0.512-1.229-0.866-2.152-1.063c-0.924-0.196-2.133-0.296-3.626-0.296
			c-2.084,0-3.813,0.157-5.189,0.473c-0.394,0.119-0.59,0.336-0.59,0.651v26.125c0,0.395-0.197,0.592-0.589,0.592h-4.481
			c-0.394,0-0.59-0.197-0.59-0.592V60.026c0-0.314,0.196-0.512,0.59-0.591c0.786-0.157,1.66-0.305,2.624-0.443
			c0.962-0.137,1.926-0.266,2.889-0.384c0.963-0.119,1.906-0.217,2.83-0.297c0.923-0.078,1.758-0.118,2.506-0.118
			c2.594,0,4.717,0.159,6.368,0.474c1.651,0.315,2.948,0.887,3.892,1.714c0.943,0.827,1.592,1.941,1.945,3.34
			c0.354,1.399,0.531,3.183,0.531,5.351v20.745c0,0.395-0.197,0.591-0.59,0.591h-4.481V90.409z"/>
		<path fill="#FFFFFF" d="M118.057,89.286c-2.595,1.141-5.759,1.713-9.493,1.713c-2.948,0-5.356-0.435-7.223-1.3
			c-1.868-0.868-3.342-2.039-4.422-3.518c-1.082-1.478-1.828-3.221-2.24-5.231c-0.413-2.01-0.619-4.137-0.619-6.383
			c0-2.325,0.226-4.492,0.678-6.502c0.452-2.011,1.198-3.744,2.241-5.202c1.041-1.457,2.407-2.601,4.098-3.429
			c1.689-0.826,3.774-1.241,6.25-1.241c2.437,0,4.432,0.346,5.985,1.034c1.553,0.691,2.772,1.647,3.656,2.868
			c0.885,1.221,1.493,2.669,1.828,4.344c0.333,1.676,0.501,3.497,0.501,5.468v1.655c0,1.183-0.127,1.961-0.383,2.335
			c-0.256,0.376-0.639,0.562-1.149,0.562H100.25c-0.236,0-0.354,0.138-0.354,0.413c0,1.973,0.216,3.586,0.648,4.849
			c0.433,1.261,1.07,2.255,1.916,2.983c0.845,0.729,1.877,1.232,3.096,1.508c1.218,0.275,2.614,0.413,4.187,0.413
			c1.375,0,2.761-0.157,4.157-0.473c1.395-0.314,2.545-0.67,3.449-1.064c0.079,0,0.137-0.008,0.177-0.029
			c0.039-0.019,0.078-0.029,0.118-0.029c0.275,0,0.472,0.117,0.589,0.354l0.236,3.133v0.178
			C118.469,88.969,118.332,89.166,118.057,89.286z M99.896,71.907c0,0.275,0.118,0.413,0.354,0.413h13.091
			c0.274,0,0.46-0.098,0.56-0.296c0.098-0.196,0.147-0.786,0.147-1.773c0-2.64-0.482-4.601-1.444-5.881
			c-0.963-1.279-2.723-1.921-5.277-1.921c-1.495,0-2.723,0.238-3.685,0.711c-0.964,0.472-1.721,1.132-2.271,1.979
			c-0.551,0.848-0.935,1.853-1.15,3.014C100.004,69.316,99.896,70.568,99.896,71.907z"/>
		<path fill="#FFFFFF" d="M133.328,58.784c0.393,0,0.59,0.198,0.59,0.592v19.92c0,1.381,0.108,2.533,0.324,3.458
			c0.216,0.927,0.6,1.666,1.149,2.217c0.551,0.552,1.298,0.937,2.241,1.152c0.942,0.217,2.161,0.326,3.656,0.326
			c0.903,0,1.778-0.039,2.623-0.118c0.845-0.079,1.603-0.197,2.271-0.355c0.393-0.117,0.59-0.335,0.59-0.65V59.376
			c0-0.393,0.196-0.591,0.589-0.591h4.481c0.393,0,0.589,0.198,0.589,0.591v29.791c0,0.316-0.196,0.513-0.589,0.591
			c-0.787,0.157-1.642,0.315-2.564,0.474c-0.925,0.157-1.857,0.294-2.8,0.412c-0.944,0.119-1.858,0.208-2.743,0.267
			c-0.884,0.059-1.681,0.089-2.388,0.089c-2.595,0-4.737-0.178-6.427-0.533c-1.691-0.354-3.028-0.954-4.01-1.802
			c-0.983-0.848-1.671-1.981-2.064-3.398c-0.393-1.42-0.589-3.212-0.589-5.38V59.375c0-0.394,0.196-0.592,0.589-0.592
			L133.328,58.784L133.328,58.784z"/>
		<path fill="#FFFFFF" d="M198.777,89.937c-0.119,0.314-0.334,0.473-0.648,0.473h-7.666c-0.275,0-0.433-0.158-0.472-0.473
			c-0.314-1.34-0.717-3.074-1.208-5.203c-0.492-2.128-1.012-4.394-1.563-6.797c-0.551-2.404-1.09-4.817-1.621-7.241
			c-0.531-2.423-0.993-4.618-1.386-6.591c-0.04-0.236-0.236-0.354-0.589-0.354c-0.394,0-0.631,0.117-0.708,0.354
			c-0.435,1.973-0.936,4.179-1.504,6.62c-0.571,2.444-1.149,4.878-1.739,7.302c-0.59,2.423-1.16,4.698-1.711,6.826
			c-0.551,2.127-1.002,3.822-1.355,5.084c-0.118,0.314-0.336,0.473-0.649,0.473h-7.488c-0.236,0-0.393-0.158-0.471-0.473
			c-0.315-1.025-0.709-2.404-1.18-4.139c-0.472-1.733-0.983-3.625-1.534-5.674c-0.55-2.05-1.1-4.167-1.65-6.355
			c-0.551-2.187-1.062-4.233-1.533-6.146c-0.472-1.911-0.885-3.605-1.239-5.083c-0.353-1.479-0.589-2.551-0.708-3.221
			c0-0.355,0.137-0.532,0.413-0.532h5.189c0.196,0,0.333,0.177,0.413,0.532c0.354,1.89,0.776,4.028,1.268,6.413
			c0.491,2.385,1.002,4.787,1.532,7.209c0.531,2.425,1.052,4.729,1.563,6.917c0.511,2.187,0.943,4.01,1.297,5.467
			c0.039,0.237,0.274,0.354,0.708,0.354c0.433,0,0.669-0.117,0.709-0.354c0.353-1.457,0.785-3.28,1.297-5.467
			c0.511-2.188,1.021-4.492,1.532-6.917c0.512-2.422,1.021-4.825,1.532-7.209c0.512-2.385,0.944-4.523,1.299-6.413
			c0.116-0.355,0.313-0.532,0.589-0.532h8.019c0.274,0,0.451,0.177,0.531,0.532c0.354,1.89,0.796,4.028,1.327,6.413
			c0.529,2.385,1.061,4.787,1.592,7.209c0.529,2.425,1.04,4.729,1.532,6.917c0.491,2.187,0.914,4.01,1.269,5.467
			c0.037,0.237,0.274,0.354,0.707,0.354c0.393,0,0.628-0.117,0.707-0.354c0.394-1.457,0.856-3.28,1.387-5.467
			c0.53-2.188,1.089-4.492,1.681-6.917c0.589-2.422,1.149-4.825,1.682-7.209c0.529-2.385,0.991-4.523,1.384-6.413
			c0.118-0.355,0.314-0.532,0.59-0.532h4.835c0.236,0,0.354,0.197,0.354,0.59c-0.118,0.632-0.364,1.685-0.738,3.163
			c-0.373,1.478-0.814,3.183-1.326,5.112c-0.511,1.932-1.061,3.981-1.65,6.148s-1.171,4.274-1.738,6.324
			c-0.572,2.049-1.112,3.94-1.623,5.674C199.504,87.532,199.092,88.911,198.777,89.937z"/>
		<path fill="#FFFFFF" d="M223.718,62.745c-1.06,0-2.229,0.051-3.508,0.147c-1.277,0.1-2.387,0.228-3.331,0.384
			c-0.198,0.04-0.383,0.051-0.56,0.031c-0.177-0.019-0.286-0.128-0.325-0.324l-0.412-2.897c-0.079-0.434,0.038-0.71,0.354-0.828
			c1.14-0.315,2.446-0.57,3.922-0.769c1.475-0.196,3.213-0.296,5.219-0.296c3.694,0,6.466,0.738,8.313,2.219
			c1.848,1.478,2.772,3.95,2.772,7.417v21.278c0,0.197-0.051,0.365-0.147,0.503c-0.099,0.139-0.305,0.266-0.62,0.385
			c-0.825,0.276-2.073,0.511-3.743,0.709c-1.671,0.197-3.509,0.296-5.514,0.296c-2.557,0-4.687-0.139-6.397-0.413
			c-1.71-0.275-3.067-0.748-4.068-1.42c-1.004-0.669-1.71-1.545-2.123-2.631c-0.412-1.082-0.619-2.431-0.619-4.048
			c0-1.418,0.117-2.68,0.354-3.782c0.235-1.104,0.708-2.06,1.413-2.867c0.709-0.809,1.72-1.468,3.038-1.98
			c1.315-0.512,3.056-0.906,5.219-1.183l7.37-0.887c0.236-0.038,0.354-0.157,0.354-0.355V68.42c0-1.142-0.128-2.078-0.384-2.808
			c-0.257-0.729-0.659-1.311-1.209-1.744c-0.551-0.433-1.268-0.729-2.151-0.887C226.048,62.825,224.977,62.745,223.718,62.745z
			 M230.678,76.341c0-0.237-0.119-0.354-0.354-0.354h-5.366c-1.26,0-2.29,0.079-3.098,0.236c-0.805,0.157-1.443,0.453-1.914,0.886
			c-0.473,0.435-0.797,1.026-0.974,1.774c-0.177,0.749-0.266,1.714-0.266,2.896c0,1.184,0.079,2.119,0.237,2.808
			c0.156,0.691,0.49,1.212,1.002,1.567c0.51,0.354,1.209,0.591,2.092,0.709c0.886,0.117,2.074,0.179,3.568,0.179
			c0.825,0,1.681-0.031,2.565-0.089c0.884-0.062,1.542-0.147,1.976-0.268c0.235-0.077,0.384-0.147,0.441-0.206
			c0.061-0.059,0.09-0.127,0.09-0.208V76.341z"/>
		<path fill="#FFFFFF" d="M268.59,89.286c-2.595,1.141-5.76,1.713-9.493,1.713c-2.948,0-5.355-0.435-7.223-1.3
			c-1.867-0.868-3.343-2.039-4.423-3.518c-1.081-1.478-1.828-3.221-2.24-5.231c-0.413-2.01-0.619-4.137-0.619-6.383
			c0-2.325,0.226-4.492,0.678-6.502c0.452-2.011,1.199-3.744,2.241-5.202c1.04-1.457,2.407-2.601,4.099-3.429
			c1.689-0.826,3.774-1.241,6.249-1.241c2.437,0,4.432,0.346,5.985,1.034c1.553,0.691,2.771,1.647,3.656,2.868
			c0.884,1.221,1.492,2.669,1.827,4.344c0.334,1.676,0.502,3.497,0.502,5.468v1.655c0,1.183-0.128,1.961-0.384,2.335
			c-0.257,0.376-0.64,0.562-1.151,0.562h-17.511c-0.236,0-0.355,0.138-0.355,0.413c0,1.973,0.217,3.586,0.649,4.849
			c0.434,1.261,1.07,2.255,1.917,2.983c0.844,0.729,1.877,1.232,3.096,1.508s2.614,0.413,4.187,0.413
			c1.375,0,2.762-0.157,4.157-0.473c1.395-0.314,2.544-0.67,3.449-1.064c0.078,0,0.137-0.008,0.178-0.029
			c0.039-0.019,0.077-0.029,0.116-0.029c0.274,0,0.473,0.117,0.591,0.354l0.235,3.133v0.178
			C269.003,88.969,268.864,89.166,268.59,89.286z M250.428,71.907c0,0.275,0.119,0.413,0.355,0.413h13.091
			c0.274,0,0.461-0.098,0.561-0.296c0.097-0.196,0.146-0.786,0.146-1.773c0-2.64-0.481-4.601-1.444-5.881
			c-0.964-1.279-2.722-1.921-5.277-1.921c-1.494,0-2.723,0.238-3.686,0.711c-0.963,0.472-1.721,1.132-2.269,1.979
			c-0.552,0.848-0.936,1.853-1.151,3.014C250.537,69.316,250.428,70.568,250.428,71.907z"/>
		<path fill="#FFFFFF" d="M280.088,59.436c1.297-0.314,2.751-0.601,4.363-0.856c1.611-0.257,3.281-0.386,5.012-0.386
			c0.903,0,1.866,0.021,2.89,0.061c1.021,0.039,1.866,0.118,2.534,0.235c0.236,0.04,0.354,0.198,0.354,0.474l-0.295,3.783
			c0,0.198-0.136,0.277-0.412,0.238c-1.493-0.238-3.165-0.356-5.013-0.356c-0.55,0-1.237,0.04-2.062,0.118
			c-0.827,0.08-1.457,0.238-1.888,0.473c-0.275,0.158-0.413,0.396-0.413,0.71v25.89c0,0.474-0.235,0.67-0.708,0.592h-4.362
			c-0.395,0-0.591-0.197-0.591-0.592V60.027C279.498,59.711,279.694,59.515,280.088,59.436z"/>
		<path fill="#FFFFFF" d="M316.822,90.525c-0.629,0.118-1.297,0.228-2.006,0.326c-0.707,0.098-1.415,0.147-2.123,0.147
			c-2.239,0-3.881-0.541-4.922-1.625c-1.042-1.084-1.563-2.571-1.563-4.463V63.514c0-0.237-0.118-0.354-0.354-0.354h-4.716
			c-0.394,0-0.591-0.197-0.591-0.592v-3.192c0-0.393,0.197-0.59,0.591-0.59h4.716c0.236,0,0.354-0.118,0.354-0.355v-7.389
			c0-0.393,0.196-0.591,0.591-0.591h4.48c0.393,0,0.589,0.198,0.589,0.591v7.389c0,0.237,0.119,0.355,0.354,0.355h5.543
			c0.393,0,0.59,0.197,0.59,0.59v3.192c0,0.395-0.197,0.592-0.59,0.592h-5.543c-0.235,0-0.354,0.116-0.354,0.354v20.689
			c0,0.907,0.196,1.546,0.591,1.92c0.392,0.376,1.061,0.562,2.003,0.562h2.418c0.393,0,0.591,0.198,0.591,0.591l-0.118,2.483
			C317.354,90.192,317.177,90.447,316.822,90.525z"/>
		<path fill="#FFFFFF" d="M331.681,90.999c-1.376,0-2.781-0.05-4.216-0.147c-1.436-0.099-2.604-0.246-3.509-0.442
			c-0.236-0.079-0.354-0.217-0.354-0.414l0.237-3.783c0-0.236,0.157-0.314,0.472-0.236c1.021,0.197,2.103,0.345,3.242,0.442
			c1.14,0.099,2.202,0.147,3.184,0.147c1.26,0,2.28-0.049,3.067-0.147c0.785-0.098,1.386-0.296,1.799-0.591
			c0.412-0.296,0.687-0.718,0.825-1.271c0.138-0.552,0.206-1.3,0.206-2.246c0-0.552-0.088-1.054-0.265-1.508
			c-0.177-0.453-0.492-0.926-0.943-1.418c-0.452-0.493-1.071-1.044-1.856-1.655c-0.788-0.611-1.79-1.351-3.009-2.217
			c-1.218-0.866-2.25-1.636-3.095-2.305c-0.845-0.671-1.532-1.331-2.064-1.981c-0.529-0.649-0.912-1.33-1.149-2.038
			c-0.235-0.709-0.354-1.537-0.354-2.484c0-3.033,0.777-5.208,2.33-6.53c1.553-1.319,4.254-1.98,8.107-1.98
			c2.792,0,5.031,0.159,6.724,0.474c0.234,0.078,0.353,0.217,0.353,0.413l-0.236,3.783c0,0.237-0.156,0.316-0.471,0.237
			c-0.788-0.117-1.69-0.237-2.714-0.355c-1.021-0.118-2.024-0.177-3.006-0.177c-1.1,0-2.025,0.029-2.771,0.088
			c-0.747,0.06-1.347,0.207-1.799,0.443s-0.776,0.592-0.974,1.063c-0.197,0.474-0.294,1.125-0.294,1.951
			c0,0.672,0.088,1.242,0.265,1.715c0.178,0.473,0.502,0.945,0.975,1.418c0.471,0.474,1.099,0.986,1.885,1.537
			c0.786,0.552,1.789,1.222,3.008,2.009c1.258,0.828,2.318,1.617,3.184,2.365c0.864,0.748,1.563,1.478,2.094,2.187
			c0.53,0.709,0.903,1.448,1.12,2.216c0.216,0.77,0.324,1.587,0.324,2.454c0,1.734-0.197,3.182-0.589,4.344
			c-0.393,1.163-1.013,2.09-1.857,2.778c-0.846,0.689-1.917,1.174-3.214,1.449C335.043,90.859,333.488,90.999,331.681,90.999z"/>
	</g>
	<g>
		<path fill="#FFFFFF" d="M24.952,14.068c-0.128-0.608-0.36-1.081-0.696-1.418c-0.335-0.335-0.807-0.576-1.414-0.72
			c-0.606-0.144-1.389-0.216-2.348-0.216c-1.47,0-2.604,0.096-3.402,0.289c-0.32,0.095-0.479,0.256-0.479,0.48v22.943
			c0,0.896,0.064,1.649,0.192,2.258c0.127,0.609,0.359,1.081,0.693,1.417c0.337,0.337,0.809,0.576,1.414,0.72
			c0.608,0.145,1.39,0.217,2.349,0.217c1.471,0,2.604-0.096,3.403-0.289c0.32-0.096,0.479-0.256,0.479-0.479l0-22.943
			C25.143,15.432,25.078,14.677,24.952,14.068z"/>
		<path fill="#FFFFFF" d="M0,0.021c0,0,0.007,44.487,0.008,44.685c0.007,0.778,0.151,1.583,0.151,1.583
			c1.157,6.824,10.591,8.896,30.434,8.868c5.494-0.007,19.714-1.878,24.545-2.902c0.81-0.173,1.368-0.226,1.366-0.647L56.407,0
			L0,0.021z M46.183,43.371c0,0.257-0.16,0.416-0.479,0.481c-0.64,0.095-1.375,0.207-2.206,0.335
			c-0.831,0.128-1.694,0.241-2.588,0.338c-0.894,0.095-1.78,0.175-2.659,0.239c-0.879,0.064-1.702,0.096-2.468,0.096
			c-2.108,0-3.85-0.153-5.223-0.457c-0.51-0.112-0.896-0.178-1.354-0.256c-0.154,0.022-0.306,0.046-0.466,0.071
			c-0.832,0.127-1.694,0.24-2.589,0.335c-0.894,0.098-1.781,0.176-2.659,0.241c-0.879,0.063-1.702,0.096-2.469,0.096
			c-2.108,0-3.85-0.153-5.223-0.457c-1.375-0.306-2.469-0.809-3.283-1.513c-0.814-0.705-1.382-1.642-1.702-2.811
			c-0.319-1.169-0.479-2.635-0.479-4.396v-3.146c0-0.001,0-0.001,0-0.003V8.351c0-0.255,0.16-0.414,0.479-0.479
			c0.639-0.096,1.374-0.208,2.205-0.336c0.831-0.128,1.694-0.24,2.588-0.336c0.893-0.096,1.781-0.176,2.659-0.24
			c0.879-0.063,1.703-0.096,2.469-0.096c2.107,0,3.85,0.151,5.224,0.457c1.373,0.305,2.468,0.809,3.282,1.513
			c0.815,0.705,1.382,1.642,1.702,2.81c0.319,1.169,0.479,2.636,0.479,4.396l-0.064,19.503c0.005,0.85,0.133,1.7,0.256,2.286
			c0.127,0.607,0.293,0.95,0.629,1.287c0.335,0.336,0.807,0.577,1.414,0.721c0.607,0.144,1.389,0.216,2.348,0.216
			c1.47,0,2.604-0.097,3.402-0.289c0.32-0.095,0.479-0.256,0.479-0.48l0.065-19.953c0-0.319,0.161-0.479,0.48-0.479h5.32
			c0.319,0,0.479,0.16,0.479,0.479L46.183,43.371z"/>
	</g>
</g>
</svg>
