<svg xmlns="http://www.w3.org/2000/svg" xmlns:xlink="http://www.w3.org/1999/xlink" version="1.1" id="Ebene_1" x="0px" y="0px" width="90.04px" height="153.969px" viewBox="0 0 90.04 153.969" enable-background="new 0 0 90.04 153.969" xml:space="preserve">
<path fill-rule="evenodd" clip-rule="evenodd" fill="#FFFFFF" d="M90.04 31.2c0-0.8-0.399-1.199-1.2-1.199H75.49 c-0.801 0-1.2 0.399-1.2 1.199l-0.16 49.93c0 0.561-0.399 0.961-1.21 1.201c-2 0.479-4.84 0.719-8.529 0.7 c-2.41 0-4.371-0.18-5.891-0.539c-1.52-0.36-2.71-0.961-3.551-1.801c-0.84-0.84-1.26-1.699-1.579-3.22 c-0.31-1.47-0.63-3.6-0.64-5.729l0.16-48.801c0-4.41-0.4-8.08-1.201-11c-0.799-2.93-2.22-5.27-4.27-7.039 c-2.04-1.76-4.79-3.021-8.229-3.78C35.739 0.4 31.4 0 26.1 0c-1.92 0-3.979 0.08-6.19 0.239C17.69 0.4 15.5 0.6 13.2 0.8 c-2.25 0.24-4.41 0.52-6.49 0.84C4.64 2 2.8 2.3 1.2 2.52C0.39 2.7 0 3.1 0 3.719V64.31v0.01v7.88c0 4.4 0.4 8.1 1.2 11 c0.8 2.9 2.2 5.3 4.3 7.03c2.05 1.8 4.8 3 8.2 3.79c3.449 0.8 7.8 1.1 13.1 1.141c1.92 0 3.98-0.08 6.19-0.24 c2.2-0.16 4.43-0.36 6.67-0.601c2.25-0.239 4.41-0.521 6.49-0.84l1.17-0.181c1.15 0.2 2.1 0.4 3.4 0.6 c3.449 0.8 7.8 1.1 13.1 1.141c1.92 0 3.98-0.08 6.189-0.24c2.201-0.16 4.431-0.36 6.67-0.601 c2.24-0.239 4.41-0.521 6.49-0.84l5.53-0.84c0.8-0.16 1.2-0.56 1.2-1.2L90.04 31.2z M37.14 81.09c0 0.57-0.39 0.97-1.199 1.2 c-2 0.48-4.84 0.721-8.53 0.721c-2.41 0-4.37-0.18-5.89-0.54C20 82.1 18.8 81.5 18 80.67c-0.84-0.84-1.42-2.021-1.74-3.541 c-0.319-1.529-0.479-3.41-0.479-5.649V14.06c0-0.56 0.39-0.96 1.2-1.2c2-0.48 4.84-0.72 8.529-0.72c2.41 0 4.4 0.2 5.9 0.5 c1.52 0.4 2.7 1 3.5 1.8s1.42 2 1.7 3.55c0.319 1.5 0.5 3.4 0.5 5.65V81.09z"/>
<path fill-rule="evenodd" clip-rule="evenodd" fill="#FFFFFF" d="M90.04 123.85v-1.68c0-0.121-0.06-0.19-0.19-0.19h-4.289 c-0.07 0-0.111-0.03-0.111-0.11v-3.24c0-0.069 0.041-0.109 0.111-0.109h3.719c0.121 0 0.19-0.061 0.19-0.18v-1.541 c0-0.119-0.069-0.18-0.19-0.18h-3.719c-0.07 0-0.111-0.039-0.111-0.109v-2.93c0-0.07 0.041-0.111 0.111-0.111h4 c0.119 0 0.18-0.059 0.18-0.18v-1.649c0-0.12-0.061-0.19-0.18-0.19h-6.4c-0.131 0-0.19 0.07-0.19 0.19v12.21 c0 0.1 0.1 0.2 0.2 0.189h6.689C89.98 124 90 124 90 123.85z M80.35 123.56c0.021-0.04 0.03-0.11 0.03-0.21v-6.46 c0-0.12-0.06-0.181-0.19-0.181h-3.68c-0.119 0-0.18 0.061-0.18 0.181v1.61c0 0.1 0.1 0.2 0.2 0.189h1.46 c0.08 0 0.1 0 0.1 0.109v3.131c0 0.08-0.04 0.14-0.131 0.16c-0.109 0.039-0.26 0.07-0.469 0.1 c-0.201 0.02-0.4 0.029-0.601 0.029c-0.53 0-0.979-0.069-1.34-0.209c-0.37-0.141-0.66-0.381-0.89-0.721 c-0.23-0.34-0.391-0.789-0.49-1.35s-0.15-1.26-0.15-2.08c0-0.88 0.061-1.609 0.18-2.199c0.121-0.58 0.301-1.051 0.551-1.4 c0.26-0.35 0.57-0.6 0.959-0.75c0.381-0.15 0.841-0.221 1.371-0.221c0.18 0 0.4 0 0.6 0.021c0.221 0 0.5 0.1 0.7 0.1 s0.44 0.1 0.6 0.1c0.2 0 0.4 0.1 0.5 0.11c0.05 0 0.1 0 0.13-0.01c0.04-0.03 0.05-0.061 0.05-0.08l0.1-1.76 c0-0.061-0.01-0.101-0.039-0.11l-0.09-0.06c-0.131-0.051-0.301-0.091-0.521-0.131c-0.22-0.029-0.47-0.06-0.74-0.09l-0.84-0.061 c-0.29-0.02-0.57-0.029-0.841-0.029c-0.949 0-1.77 0.15-2.439 0.46s-1.22 0.75-1.64 1.31c-0.431 0.57-0.74 1.26-0.94 2.1 c-0.199 0.811-0.289 1.721-0.289 2.73c0 2.1 0.4 3.6 1.2 4.729c0.811 1.1 2.1 1.6 4 1.6 c0.739 0 1.42-0.059 2.039-0.17c0.631-0.119 1.141-0.25 1.53-0.379C80.29 123.6 80.3 123.6 80.3 123.56z M69.5 124 c0.12 0 0.18-0.06 0.18-0.189v-1.68c0-0.121-0.06-0.19-0.18-0.19h-4.301c-0.069 0-0.109-0.03-0.109-0.11v-3.24 c0-0.069 0.04-0.109 0.109-0.109h3.721c0.13 0 0.189-0.061 0.189-0.18v-1.541c0-0.119-0.06-0.18-0.189-0.18h-3.721 c-0.069 0-0.109-0.039-0.109-0.109v-2.93c0-0.07 0.04-0.111 0.109-0.111h4c0.121 0 0.191-0.059 0.191-0.18v-1.649 c0-0.12-0.07-0.19-0.191-0.19H62.8c-0.13 0-0.19 0.07-0.19 0.19v12.21c0 0.1 0.1 0.2 0.2 0.189H69.5z M60.449 112.8 l0.181-1.19c0-0.12-0.05-0.19-0.16-0.19H58.3c-0.149 0-0.229 0.07-0.239 0.19l-0.15 1.35l-0.211 1.75l-0.26 1.921l-0.26 1.9 l-0.23 1.641l-0.189 1.16c-0.01 0.1-0.029 0.17-0.07 0.199c-0.039 0.031-0.1 0.041-0.199 0.041s-0.16-0.01-0.19-0.051 c-0.021-0.039-0.05-0.09-0.069-0.17l-0.221-1.109l-0.279-1.521L55.42 117l-0.3-1.82l-0.28-1.721l-0.22-1.449 c0-0.12-0.06-0.19-0.19-0.19h-2.85c-0.12 0-0.18 0.07-0.18 0.19l-0.221 1.459l-0.27 1.73l-0.301 1.82l-0.289 1.8 c-0.101 0.561-0.19 1.061-0.271 1.51l-0.21 1.08c-0.02 0.09-0.05 0.15-0.08 0.18c-0.029 0.031-0.09 0.041-0.189 0 c-0.141 0-0.23-0.07-0.26-0.221l-0.201-1.16c-0.08-0.5-0.16-1.039-0.25-1.64l-0.27-1.899l-0.25-1.931l-0.22-1.75l-0.14-1.35 c-0.021-0.12-0.07-0.19-0.17-0.19h-2.241c-0.119 0-0.189 0.061-0.189 0.17c0.02 0.2 0.1 0.5 0.1 1.051l0.299 1.92l0.391 2.4 l0.42 2.59L47.04 122l0.319 1.83c0.031 0.1 0.1 0.2 0.2 0.209h3.38c0.15 0 0.24-0.07 0.261-0.209 c0.049-0.19 0.109-0.48 0.189-0.861c0.07-0.389 0.15-0.829 0.24-1.34l0.27-1.64l0.301-1.76l0.279-1.74l0.24-1.579 c0.01-0.091 0.08-0.141 0.199-0.141c0.111 0 0.2 0.1 0.2 0.141c0.069 0.5 0.2 1 0.3 1.579l0.299 1.74l0.32 1.8 l0.291 1.64l0.239 1.33c0.07 0.4 0.1 0.7 0.2 0.851c0.039 0.1 0.1 0.2 0.2 0.209h3.371c0.14 0 0.229-0.07 0.279-0.209 l0.32-1.781l0.41-2.319l0.42-2.53l0.391-2.41L60.449 112.831z M40.63 124.04c0.12 0 0.18-0.06 0.18-0.189v-1.68 c0-0.121-0.06-0.19-0.18-0.19h-4.3c-0.07 0-0.11-0.03-0.11-0.11v-3.24c0-0.069 0.04-0.109 0.11-0.109h3.72 c0.13 0 0.189-0.061 0.189-0.18v-1.541c0-0.119-0.06-0.18-0.189-0.18h-3.72c-0.07 0-0.11-0.039-0.11-0.109v-2.93 c0-0.07 0.04-0.111 0.11-0.111h4c0.13 0 0.19-0.059 0.19-0.18v-1.649c0-0.12-0.061-0.19-0.19-0.19h-6.4c-0.13 0-0.19 0.07-0.19 0.2 v12.21c0 0.1 0.1 0.2 0.2 0.189H40.63z M32.601 153.331v-2.92c0-0.221-0.101-0.32-0.32-0.32h-7.44 c-0.13 0-0.19-0.07-0.19-0.19v-5.62c0-0.13 0.061-0.189 0.19-0.189h6.45c0.21 0 0.32-0.11 0.32-0.32v-2.66 c0-0.22-0.11-0.33-0.32-0.33h-6.45c-0.13 0-0.19-0.061-0.19-0.189v-5.07c0-0.12 0.061-0.189 0.19-0.189h6.931 c0.209 0 0.319-0.101 0.319-0.32v-2.86c0-0.21-0.11-0.319-0.319-0.319H20.67c-0.21 0-0.319 0.109-0.319 0.319v21.181 c0 0.2 0.1 0.3 0.3 0.319h11.61C32.5 153.7 32.6 153.5 32.6 153.331z M30.64 122.53c0.221-0.38 0.33-0.82 0.33-1.32 v-9.569c0-0.12-0.06-0.19-0.189-0.19h-2.07c-0.12 0-0.18 0.07-0.18 0.19v8.829c0 0.361-0.061 0.66-0.17 0.9 c-0.11 0.22-0.26 0.39-0.45 0.51c-0.181 0.13-0.4 0.21-0.64 0.24c-0.25 0.039-0.511 0.06-0.781 0.1 c-0.279 0-0.549-0.021-0.799-0.06c-0.24-0.03-0.461-0.11-0.641-0.23c-0.189-0.12-0.34-0.279-0.449-0.51 c-0.111-0.221-0.16-0.51-0.16-0.87v-8.84c0-0.12-0.07-0.19-0.19-0.19h-2.09c-0.12 0-0.19 0.07-0.19 0.19v9.569 c0 1 0.4 1.8 1.1 2.25c0.721 0.5 1.9 0.8 3.4 0.76c0.67 0 1.279-0.059 1.83-0.189c0.56-0.13 1.039-0.32 1.439-0.57 C30.12 123.2 30.4 122.9 30.6 122.53z M19.771 124.04c0.119 0 0.189-0.06 0.189-0.189v-1.68c0-0.121-0.07-0.19-0.189-0.19 h-4.291c-0.08 0-0.109-0.03-0.109-0.11v-3.24c0-0.069 0.029-0.109 0.109-0.109H19.2c0.119 0 0.18-0.061 0.18-0.18v-1.541 c0-0.119-0.061-0.18-0.18-0.18h-3.721c-0.08 0-0.109-0.039-0.109-0.109v-2.93c0-0.07 0.029-0.111 0.109-0.111h3.99 c0.131 0 0.19-0.059 0.19-0.18v-1.649c0-0.12-0.06-0.19-0.19-0.19h-6.4c-0.119 0-0.18 0.07-0.18 0.19v12.21 c0 0.1 0.1 0.2 0.2 0.189H19.771z M13.68 131.831c-0.39-0.061-0.81-0.111-1.28-0.16c-0.47-0.041-0.959-0.08-1.459-0.11 c-0.511-0.03-0.99-0.05-1.461-0.05c-1.649 0-3.06 0.27-4.22 0.81c-1.17 0.53-2.12 1.29-2.86 2.271c-0.73 0.99-1.27 2.18-1.62 3.6 c-0.34 1.399-0.51 2.979-0.51 4.729c0 3.6 0.7 6.3 2.1 8.21c1.41 1.9 3.7 2.9 7 2.859c1.28 0 2.471-0.1 3.55-0.309 c1.07-0.201 1.96-0.421 2.64-0.65c0.131-0.051 0.211-0.11 0.24-0.18c0.03-0.08 0.051-0.201 0.051-0.371V141.27 c0-0.221-0.11-0.33-0.32-0.33H9.16c-0.22 0-0.32 0.109-0.32 0.33v2.79c0 0.2 0.1 0.3 0.3 0.319h2.53 c0.129 0 0.2 0.1 0.2 0.19v5.42c0 0.15-0.07 0.25-0.22 0.29c-0.2 0.061-0.47 0.12-0.82 0.16s-0.7 0.061-1.04 0.1 c-0.92 0-1.7-0.121-2.33-0.36c-0.63-0.25-1.14-0.671-1.54-1.261c-0.39-0.58-0.68-1.359-0.85-2.34c-0.17-0.97-0.25-2.17-0.25-3.609 c0-1.52 0.1-2.78 0.3-3.801c0.2-1.01 0.52-1.819 0.96-2.439c0.44-0.609 0.99-1.04 1.65-1.29c0.67-0.26 1.46-0.39 2.38-0.39 c0.32 0 0.7 0 1.1 0.05c0.399 0 0.8 0.1 1.2 0.13c0.4 0.1 0.8 0.1 1.1 0.17c0.341 0.1 0.6 0.1 0.8 0.2 c0.091 0 0.2 0 0.23-0.021c0.061-0.05 0.09-0.1 0.09-0.14l0.16-3.05c0-0.11-0.02-0.17-0.061-0.2 c-0.049-0.01-0.1-0.05-0.159-0.09C14.36 132 14.1 131.9 13.7 131.831z M9.8 124.04c0.12 0 0.18-0.06 0.18-0.189v-12.21 c0-0.12-0.06-0.19-0.18-0.19H7.84c-0.13 0-0.19 0.07-0.19 0.19l0.13 8.899c0 0.121-0.04 0.19-0.13 0.2 c-0.05 0-0.09-0.021-0.11-0.05c-0.03-0.03-0.06-0.12-0.11-0.25l-3.15-8.75c-0.06-0.15-0.14-0.23-0.24-0.23H0.88 c-0.13 0-0.19 0.07-0.19 0.19v12.21c0 0.1 0.1 0.2 0.2 0.189H2.8c0.13 0 0.19-0.06 0.19-0.189l-0.15-9.12 c0-0.16 0.01-0.261 0.02-0.3c0.01-0.03 0.05-0.051 0.11-0.051c0.1 0 0.2 0.1 0.3 0.371l3.35 9.1 c0.05 0.1 0.1 0.2 0.3 0.229H9.8z M36.29 132.15v21.181c0 0.2 0.1 0.3 0.3 0.319h3.629c0.211 0 0.32-0.11 0.32-0.319 v-8.98c0-0.131 0.061-0.2 0.19-0.2h6.641c0.129 0 0.2 0.1 0.2 0.2v8.98c0 0.2 0.1 0.3 0.3 0.319h3.65 c0.209 0 0.319-0.11 0.319-0.319V132.15c0-0.21-0.11-0.319-0.319-0.319h-3.65c-0.221 0-0.33 0.109-0.33 0.319v8.41 c0 0.13-0.061 0.19-0.189 0.19H40.75c-0.13 0-0.19-0.061-0.19-0.19v-8.41c0-0.21-0.109-0.319-0.32-0.319H36.61 C36.399 131.8 36.3 131.9 36.3 132.15z M56.891 132.15v21.181c0 0.2 0.1 0.3 0.3 0.319h11.61 c0.209 0 0.32-0.11 0.32-0.319v-2.92c0-0.221-0.111-0.32-0.32-0.32h-7.44c-0.13 0-0.2-0.07-0.2-0.19v-5.62 c0-0.13 0.07-0.189 0.2-0.189h6.45c0.21 0 0.32-0.11 0.32-0.32v-2.66c0-0.22-0.11-0.33-0.32-0.33h-6.45c-0.13 0-0.2-0.061-0.2-0.189 v-5.07c0-0.12 0.07-0.189 0.2-0.189h6.931c0.209 0 0.319-0.101 0.319-0.32v-2.86c0-0.21-0.11-0.319-0.319-0.319H57.21 C56.99 131.8 56.9 131.9 56.9 132.15z M72.83 132.15v21.181c0 0.2 0.1 0.3 0.3 0.319h3.34 c0.209 0 0.32-0.11 0.32-0.319l-0.261-15.82c0-0.28 0.011-0.45 0.03-0.51c0.02-0.061 0.09-0.101 0.189-0.101 c0.18 0 0.3 0.2 0.5 0.649l5.81 15.711c0.091 0.3 0.2 0.4 0.5 0.39h5.129c0.221 0 0.32-0.11 0.32-0.319V132.15 c0-0.21-0.1-0.319-0.32-0.319H85.21c-0.21 0-0.319 0.109-0.319 0.319l0.229 15.431c0 0.219-0.08 0.319-0.229 0.3 c-0.091 0-0.15-0.021-0.191-0.08c-0.049-0.05-0.109-0.19-0.199-0.43l-5.45-15.171c-0.101-0.26-0.239-0.389-0.409-0.389h-5.49 C72.939 131.8 72.8 131.9 72.8 132.15z"/>
</svg>
